<mxfile host="app.diagrams.net" modified="2021-02-08T09:54:07.275Z" agent="5.0 (Windows NT 10.0; Win64; x64) AppleWebKit/537.36 (KHTML, like Gecko) Chrome/88.0.4324.150 Safari/537.36" etag="v_QQPaC6R_rLx6LgWCZP" version="14.3.0" type="github">
  <diagram id="ArbItDSfS2hNIC00Cbeu" name="Page-1">
    <mxGraphModel dx="1038" dy="1717" grid="1" gridSize="10" guides="1" tooltips="1" connect="1" arrows="1" fold="1" page="1" pageScale="1" pageWidth="827" pageHeight="1169" math="0" shadow="0">
      <root>
        <mxCell id="0" />
        <mxCell id="1" parent="0" />
        <mxCell id="q-xGUemZeF0ZS09BVwWl-1" value="&lt;font style=&quot;font-size: 20px&quot;&gt;ELF Header&lt;/font&gt;" style="rounded=0;whiteSpace=wrap;html=1;fontFamily=Comic Sans MS;fillColor=#ffcc99;strokeColor=#36393d;dashed=1;" vertex="1" parent="1">
          <mxGeometry x="310" y="220" width="220" height="60" as="geometry" />
        </mxCell>
        <mxCell id="q-xGUemZeF0ZS09BVwWl-2" value="&lt;font style=&quot;font-size: 13px&quot;&gt;0x00000000&lt;/font&gt;" style="text;html=1;strokeColor=none;fillColor=none;align=left;verticalAlign=middle;whiteSpace=wrap;rounded=0;dashed=1;fontFamily=Comic Sans MS;" vertex="1" parent="1">
          <mxGeometry x="530" y="270" width="150" height="20" as="geometry" />
        </mxCell>
        <mxCell id="q-xGUemZeF0ZS09BVwWl-3" value="" style="endArrow=none;html=1;fontFamily=Comic Sans MS;strokeWidth=2;rounded=0;" edge="1" parent="1">
          <mxGeometry width="50" height="50" relative="1" as="geometry">
            <mxPoint x="240" y="220" as="sourcePoint" />
            <mxPoint x="300" y="220" as="targetPoint" />
          </mxGeometry>
        </mxCell>
        <mxCell id="q-xGUemZeF0ZS09BVwWl-5" value="" style="endArrow=none;html=1;fontFamily=Comic Sans MS;strokeWidth=2;" edge="1" parent="1">
          <mxGeometry width="50" height="50" relative="1" as="geometry">
            <mxPoint x="240" y="279.5" as="sourcePoint" />
            <mxPoint x="300" y="279.5" as="targetPoint" />
          </mxGeometry>
        </mxCell>
        <mxCell id="q-xGUemZeF0ZS09BVwWl-7" value="&lt;font style=&quot;font-size: 13px&quot;&gt;0x40&lt;/font&gt;" style="text;html=1;strokeColor=none;fillColor=none;align=left;verticalAlign=middle;whiteSpace=wrap;rounded=0;dashed=1;fontFamily=Comic Sans MS;" vertex="1" parent="1">
          <mxGeometry x="250" y="240" width="150" height="20" as="geometry" />
        </mxCell>
        <mxCell id="q-xGUemZeF0ZS09BVwWl-9" value="&lt;span style=&quot;font-size: 20px&quot;&gt;.text&lt;/span&gt;" style="rounded=0;whiteSpace=wrap;html=1;fontFamily=Comic Sans MS;fillColor=#ffcc99;strokeColor=#36393d;dashed=1;" vertex="1" parent="1">
          <mxGeometry x="310" y="50" width="220" height="170" as="geometry" />
        </mxCell>
        <mxCell id="q-xGUemZeF0ZS09BVwWl-10" value="&lt;font style=&quot;font-size: 13px&quot;&gt;0x00000040&lt;/font&gt;" style="text;html=1;strokeColor=none;fillColor=none;align=left;verticalAlign=middle;whiteSpace=wrap;rounded=0;dashed=1;fontFamily=Comic Sans MS;" vertex="1" parent="1">
          <mxGeometry x="530" y="210" width="150" height="20" as="geometry" />
        </mxCell>
        <mxCell id="q-xGUemZeF0ZS09BVwWl-14" value="" style="endArrow=none;html=1;fontFamily=Comic Sans MS;strokeWidth=2;rounded=0;" edge="1" parent="1">
          <mxGeometry width="50" height="50" relative="1" as="geometry">
            <mxPoint x="240" y="50" as="sourcePoint" />
            <mxPoint x="300" y="50" as="targetPoint" />
          </mxGeometry>
        </mxCell>
        <mxCell id="q-xGUemZeF0ZS09BVwWl-16" value="&lt;font style=&quot;font-size: 13px&quot;&gt;0x61&lt;/font&gt;" style="text;html=1;strokeColor=none;fillColor=none;align=left;verticalAlign=middle;whiteSpace=wrap;rounded=0;dashed=1;fontFamily=Comic Sans MS;" vertex="1" parent="1">
          <mxGeometry x="250" y="120" width="150" height="20" as="geometry" />
        </mxCell>
        <mxCell id="q-xGUemZeF0ZS09BVwWl-17" value="&lt;font style=&quot;font-size: 13px&quot;&gt;0x000000a4&lt;/font&gt;" style="text;html=1;strokeColor=none;fillColor=none;align=left;verticalAlign=middle;whiteSpace=wrap;rounded=0;dashed=1;fontFamily=Comic Sans MS;" vertex="1" parent="1">
          <mxGeometry x="530" y="40" width="150" height="20" as="geometry" />
        </mxCell>
        <mxCell id="q-xGUemZeF0ZS09BVwWl-18" value="&lt;span style=&quot;font-size: 20px&quot;&gt;.data&lt;/span&gt;" style="rounded=0;whiteSpace=wrap;html=1;fontFamily=Comic Sans MS;fillColor=#ffcc99;strokeColor=#36393d;dashed=1;" vertex="1" parent="1">
          <mxGeometry x="310" y="-40" width="220" height="90" as="geometry" />
        </mxCell>
        <mxCell id="q-xGUemZeF0ZS09BVwWl-19" value="" style="endArrow=none;html=1;fontFamily=Comic Sans MS;strokeWidth=2;rounded=0;" edge="1" parent="1">
          <mxGeometry width="50" height="50" relative="1" as="geometry">
            <mxPoint x="240" y="-40" as="sourcePoint" />
            <mxPoint x="300" y="-40" as="targetPoint" />
          </mxGeometry>
        </mxCell>
        <mxCell id="q-xGUemZeF0ZS09BVwWl-20" value="&lt;font style=&quot;font-size: 13px&quot;&gt;0x08&lt;/font&gt;" style="text;html=1;strokeColor=none;fillColor=none;align=left;verticalAlign=middle;whiteSpace=wrap;rounded=0;dashed=1;fontFamily=Comic Sans MS;" vertex="1" parent="1">
          <mxGeometry x="250" y="-5" width="150" height="20" as="geometry" />
        </mxCell>
        <mxCell id="q-xGUemZeF0ZS09BVwWl-21" value="&lt;font style=&quot;font-size: 13px&quot;&gt;0x000000ac&lt;/font&gt;" style="text;html=1;strokeColor=none;fillColor=none;align=left;verticalAlign=middle;whiteSpace=wrap;rounded=0;dashed=1;fontFamily=Comic Sans MS;" vertex="1" parent="1">
          <mxGeometry x="530" y="-50" width="150" height="20" as="geometry" />
        </mxCell>
        <mxCell id="q-xGUemZeF0ZS09BVwWl-22" value="&lt;span style=&quot;font-size: 20px&quot;&gt;.rodata&lt;/span&gt;" style="rounded=0;whiteSpace=wrap;html=1;fontFamily=Comic Sans MS;fillColor=#ffcc99;strokeColor=#36393d;dashed=1;" vertex="1" parent="1">
          <mxGeometry x="310" y="-110" width="220" height="70" as="geometry" />
        </mxCell>
        <mxCell id="q-xGUemZeF0ZS09BVwWl-23" value="" style="endArrow=none;html=1;fontFamily=Comic Sans MS;strokeWidth=2;rounded=0;" edge="1" parent="1">
          <mxGeometry width="50" height="50" relative="1" as="geometry">
            <mxPoint x="240" y="-110" as="sourcePoint" />
            <mxPoint x="300" y="-110" as="targetPoint" />
          </mxGeometry>
        </mxCell>
        <mxCell id="q-xGUemZeF0ZS09BVwWl-24" value="&lt;font style=&quot;font-size: 13px&quot;&gt;0x04&lt;/font&gt;" style="text;html=1;strokeColor=none;fillColor=none;align=left;verticalAlign=middle;whiteSpace=wrap;rounded=0;dashed=1;fontFamily=Comic Sans MS;" vertex="1" parent="1">
          <mxGeometry x="250" y="-90" width="150" height="20" as="geometry" />
        </mxCell>
        <mxCell id="q-xGUemZeF0ZS09BVwWl-25" value="&lt;font style=&quot;font-size: 13px&quot;&gt;0x000000b0&lt;/font&gt;" style="text;html=1;strokeColor=none;fillColor=none;align=left;verticalAlign=middle;whiteSpace=wrap;rounded=0;dashed=1;fontFamily=Comic Sans MS;" vertex="1" parent="1">
          <mxGeometry x="530" y="-120" width="150" height="20" as="geometry" />
        </mxCell>
        <mxCell id="q-xGUemZeF0ZS09BVwWl-26" value="&lt;span style=&quot;font-size: 20px&quot;&gt;.comment&lt;/span&gt;" style="rounded=0;whiteSpace=wrap;html=1;fontFamily=Comic Sans MS;fillColor=#ffcc99;strokeColor=#36393d;dashed=1;" vertex="1" parent="1">
          <mxGeometry x="310" y="-230" width="220" height="120" as="geometry" />
        </mxCell>
        <mxCell id="q-xGUemZeF0ZS09BVwWl-27" value="" style="endArrow=none;html=1;fontFamily=Comic Sans MS;strokeWidth=2;rounded=0;" edge="1" parent="1">
          <mxGeometry width="50" height="50" relative="1" as="geometry">
            <mxPoint x="240" y="-230" as="sourcePoint" />
            <mxPoint x="300" y="-230" as="targetPoint" />
          </mxGeometry>
        </mxCell>
        <mxCell id="q-xGUemZeF0ZS09BVwWl-28" value="&lt;font style=&quot;font-size: 13px&quot;&gt;0x2b&lt;/font&gt;" style="text;html=1;strokeColor=none;fillColor=none;align=left;verticalAlign=middle;whiteSpace=wrap;rounded=0;dashed=1;fontFamily=Comic Sans MS;" vertex="1" parent="1">
          <mxGeometry x="250" y="-180" width="150" height="20" as="geometry" />
        </mxCell>
        <mxCell id="q-xGUemZeF0ZS09BVwWl-29" value="&lt;font style=&quot;font-size: 13px&quot;&gt;0x000000db&lt;/font&gt;" style="text;html=1;strokeColor=none;fillColor=none;align=left;verticalAlign=middle;whiteSpace=wrap;rounded=0;dashed=1;fontFamily=Comic Sans MS;" vertex="1" parent="1">
          <mxGeometry x="530" y="-240" width="150" height="20" as="geometry" />
        </mxCell>
      </root>
    </mxGraphModel>
  </diagram>
</mxfile>
